<svg id="svg" version="1.1" xmlns="http://www.w3.org/2000/svg" xmlns:xlink="http://www.w3.org/1999/xlink" width="400" height="160.73997944501542" viewBox="0, 0, 400,160.73997944501542"><g id="svgg"><path id="path0" d="M0.000 80.333 L 0.000 160.667 200.000 160.667 L 400.000 160.667 400.000 80.333 L 400.000 0.000 200.000 0.000 L 0.000 0.000 0.000 80.333 M156.403 40.268 C 156.640 40.359,156.667 41.473,156.667 51.157 C 156.667 57.090,156.723 62.001,156.792 62.069 C 156.860 62.138,156.917 66.032,156.917 70.722 C 156.917 80.184,156.906 80.081,158.043 81.769 C 159.470 83.887,162.877 83.830,164.913 81.653 C 166.029 80.460,166.000 80.700,166.000 72.665 L 166.000 65.352 165.625 64.923 C 165.354 64.613,164.972 64.443,164.250 64.312 C 163.700 64.212,163.077 64.099,162.866 64.060 C 162.516 63.995,162.487 63.914,162.533 63.120 L 162.583 62.250 167.417 62.161 C 172.849 62.061,172.537 61.982,172.368 63.416 C 172.303 63.966,172.250 68.292,172.250 73.029 C 172.250 83.359,172.063 82.533,174.428 82.667 L 175.905 82.750 176.056 83.389 C 176.250 84.212,176.224 84.232,174.247 84.805 C 166.336 87.098,166.938 87.124,166.645 84.476 C 166.539 83.527,166.436 82.728,166.415 82.702 C 166.394 82.676,165.898 83.130,165.313 83.711 C 163.370 85.641,161.251 86.500,158.429 86.500 L 156.667 86.500 156.667 103.399 C 156.667 118.655,156.641 120.308,156.403 120.399 C 155.854 120.610,100.412 120.512,100.200 120.300 C 100.046 120.146,100.000 112.543,100.000 87.092 L 100.000 54.085 106.958 47.126 L 113.915 40.167 135.027 40.167 C 146.639 40.167,156.258 40.212,156.403 40.268 M186.656 44.990 C 186.863 45.121,186.868 46.105,186.694 52.279 C 186.584 56.205,186.495 60.526,186.497 61.882 L 186.500 64.347 186.958 63.923 C 188.881 62.139,193.217 61.104,196.149 61.729 C 206.572 63.952,206.908 80.163,196.639 85.347 C 193.697 86.832,189.185 86.926,185.548 85.578 L 184.358 85.137 183.211 85.819 C 182.085 86.487,181.205 86.678,180.705 86.361 C 180.536 86.254,180.494 82.998,180.496 70.321 C 180.500 50.226,180.661 51.366,177.676 50.398 C 176.621 50.057,176.583 50.025,176.583 49.492 C 176.583 48.943,176.593 48.936,178.583 48.131 C 181.270 47.045,181.173 47.086,182.898 46.290 C 183.733 45.905,184.717 45.420,185.083 45.213 C 185.794 44.812,186.269 44.745,186.656 44.990 M216.698 62.083 C 216.628 85.267,216.466 83.833,219.159 83.833 C 221.024 83.833,221.167 83.917,221.167 85.013 C 221.167 86.136,221.131 86.147,218.000 85.967 C 215.421 85.819,207.840 85.914,207.066 86.104 C 206.536 86.235,206.167 85.755,206.167 84.938 C 206.167 83.931,206.337 83.833,208.098 83.833 C 210.789 83.833,210.660 84.386,210.653 72.833 C 210.641 51.734,210.622 51.588,207.750 50.588 C 205.940 49.957,206.000 49.996,206.003 49.438 C 206.006 48.655,206.080 48.606,208.417 47.838 C 210.743 47.073,214.117 45.749,214.456 45.467 C 214.803 45.180,215.891 44.838,216.333 44.879 L 216.750 44.917 216.698 62.083 M238.750 61.919 C 246.107 63.889,249.980 72.444,246.570 79.195 C 241.722 88.794,228.269 89.139,223.707 79.781 C 218.937 69.996,228.132 59.077,238.750 61.919 M260.001 61.834 C 260.099 62.018,260.265 62.787,260.369 63.543 C 260.612 65.305,260.617 65.308,261.592 64.400 C 265.404 60.850,270.857 60.517,274.186 63.632 C 276.470 65.768,276.572 66.313,276.460 75.767 C 276.360 84.132,276.290 83.833,278.352 83.833 C 279.956 83.833,280.000 83.864,280.000 85.000 C 280.000 86.206,280.202 86.150,276.571 85.949 C 274.575 85.838,272.579 85.838,270.655 85.947 C 267.265 86.139,267.299 86.150,267.367 84.848 L 267.417 83.917 268.553 83.867 C 270.301 83.791,270.237 84.093,270.302 75.624 C 270.364 67.626,270.328 67.328,269.145 66.145 C 266.973 63.973,262.547 64.725,261.271 67.485 C 260.929 68.223,260.915 68.507,260.873 75.583 C 260.823 83.939,260.794 83.723,262.004 83.794 C 263.469 83.880,263.500 83.903,263.500 84.899 C 263.500 86.140,263.502 86.139,260.375 85.949 C 258.604 85.842,256.672 85.842,254.792 85.948 C 251.529 86.134,251.500 86.125,251.500 85.013 C 251.500 83.991,251.692 83.833,252.932 83.833 C 253.699 83.833,254.064 83.752,254.357 83.515 L 254.750 83.196 254.750 76.223 L 254.750 69.250 254.293 68.473 C 253.866 67.746,253.284 67.271,252.083 66.668 C 251.657 66.454,251.583 66.322,251.583 65.769 L 251.583 65.122 255.333 63.328 C 259.295 61.432,259.714 61.298,260.001 61.834 M295.408 61.924 C 297.306 62.442,298.667 63.383,298.667 64.177 C 298.667 64.341,298.817 65.237,299.000 66.167 C 299.425 68.323,299.436 68.223,298.744 68.552 C 297.895 68.957,297.865 68.942,296.583 67.471 C 293.980 64.483,293.308 63.992,291.641 63.867 C 289.096 63.675,287.244 65.377,287.577 67.602 C 287.808 69.136,288.895 69.810,293.048 70.991 C 298.443 72.524,300.788 75.719,299.751 80.120 C 298.802 84.145,295.388 86.491,290.469 86.498 C 286.840 86.503,283.982 85.482,283.753 84.098 C 283.706 83.815,283.518 82.608,283.334 81.417 C 283.151 80.225,282.964 79.041,282.920 78.786 C 282.853 78.400,282.915 78.294,283.295 78.149 C 284.599 77.652,284.518 77.596,285.915 79.976 C 287.950 83.444,288.883 84.167,291.327 84.167 C 293.676 84.167,295.058 83.193,295.401 81.294 C 295.781 79.195,294.396 77.910,290.333 76.592 C 285.602 75.058,283.587 73.306,283.171 70.366 C 282.316 64.316,288.511 60.042,295.408 61.924 M233.786 64.006 C 227.960 65.463,227.145 80.662,232.739 83.540 C 235.106 84.758,238.062 83.700,239.320 81.184 C 243.075 73.673,239.501 62.578,233.786 64.006 M188.813 65.385 C 188.206 65.592,187.438 65.968,187.105 66.222 L 186.500 66.684 186.504 72.133 C 186.510 82.301,187.326 84.245,191.583 84.249 C 195.636 84.252,198.000 80.917,198.000 75.197 C 198.000 67.788,194.071 63.592,188.813 65.385 " stroke="none" fill="#343434" fill-rule="evenodd"></path><path id="path1" d="M107.000 47.250 L 100.085 54.167 106.781 54.167 C 112.645 54.167,113.509 54.134,113.738 53.905 C 113.965 53.677,114.181 40.333,113.958 40.333 C 113.934 40.333,110.803 43.446,107.000 47.250 M215.833 45.000 C 215.604 45.064,214.779 45.420,214.000 45.791 C 212.572 46.471,209.196 47.741,207.500 48.237 C 205.614 48.788,205.534 49.823,207.333 50.372 C 210.750 51.415,210.649 50.836,210.659 69.467 C 210.668 85.315,210.925 84.000,207.817 84.000 L 206.317 84.000 206.367 84.943 L 206.417 85.886 213.708 85.901 L 221.000 85.917 221.000 84.958 L 221.000 84.000 219.458 83.998 C 216.386 83.993,216.668 86.039,216.684 63.917 C 216.691 53.742,216.690 45.331,216.682 45.226 C 216.660 44.956,216.319 44.865,215.833 45.000 M184.083 45.778 C 182.663 46.507,178.862 48.166,177.417 48.689 C 176.228 49.119,176.425 49.939,177.820 50.368 C 180.708 51.254,180.690 51.103,180.635 74.917 L 180.609 86.250 181.203 86.400 C 181.739 86.535,181.927 86.476,183.097 85.800 L 184.396 85.049 185.371 85.431 C 193.958 88.797,202.725 83.769,204.032 74.729 C 205.510 64.502,195.353 57.863,187.287 63.784 L 186.447 64.400 186.583 55.408 C 186.658 50.463,186.726 46.117,186.734 45.750 C 186.758 44.755,186.064 44.762,184.083 45.778 M125.667 61.741 C 124.535 62.162,118.414 64.872,118.200 65.045 C 118.081 65.142,118.006 65.413,118.033 65.647 C 118.084 66.077,118.198 66.171,120.070 67.325 C 121.807 68.396,121.681 67.066,121.629 83.798 C 121.575 100.923,121.816 99.219,119.433 99.298 L 117.984 99.347 118.034 100.350 L 118.083 101.354 124.792 101.354 C 132.208 101.353,131.833 101.398,131.833 100.504 C 131.833 99.354,131.803 99.333,130.091 99.333 C 128.318 99.333,128.121 99.216,127.856 97.997 C 127.566 96.662,127.552 85.571,127.840 85.649 C 127.974 85.685,128.571 85.858,129.167 86.034 C 134.702 87.664,140.557 85.005,143.267 79.631 C 145.191 75.816,145.376 70.209,143.687 66.917 C 140.706 61.107,133.296 59.820,128.363 64.255 C 127.387 65.132,127.461 65.203,127.177 63.114 C 126.956 61.491,126.776 61.328,125.667 61.741 M233.750 61.680 C 222.490 62.884,218.492 77.484,227.550 84.322 C 231.647 87.416,238.691 87.139,242.911 83.717 C 250.571 77.508,248.616 65.136,239.522 62.268 C 238.386 61.909,237.697 61.789,235.667 61.594 C 235.346 61.563,234.483 61.602,233.750 61.680 M258.333 62.017 C 257.737 62.301,256.800 62.743,256.250 63.000 C 252.542 64.727,251.648 65.187,251.562 65.413 C 251.366 65.924,251.660 66.415,252.353 66.732 C 254.778 67.842,254.825 68.023,254.830 76.273 C 254.834 84.415,254.968 83.870,252.935 83.972 L 251.667 84.036 251.667 84.977 L 251.667 85.917 257.458 85.901 L 263.250 85.885 263.300 84.943 L 263.350 84.000 262.497 84.000 C 260.664 84.000,260.669 84.021,260.668 76.072 C 260.666 68.113,260.808 67.232,262.287 66.013 C 264.857 63.893,269.288 64.775,270.180 67.583 C 270.471 68.503,270.590 78.750,270.339 81.330 C 270.105 83.736,269.920 84.000,268.471 84.000 L 267.500 84.000 267.500 84.958 L 267.500 85.917 273.708 85.905 L 279.917 85.893 279.917 84.988 L 279.917 84.083 278.583 83.999 C 277.500 83.931,276.727 83.731,276.467 83.452 C 276.448 83.433,276.392 79.667,276.342 75.083 L 276.250 66.750 275.809 65.810 C 273.514 60.915,266.336 60.171,261.760 64.353 C 260.593 65.420,260.569 65.409,260.328 63.708 C 259.997 61.372,259.885 61.277,258.333 62.017 M291.000 61.604 C 289.123 61.903,288.424 62.112,287.295 62.711 C 284.342 64.276,282.978 66.696,283.218 69.945 C 283.443 73.009,285.422 74.881,290.046 76.404 C 291.309 76.820,292.761 77.366,293.272 77.616 C 296.925 79.405,295.912 83.958,291.787 84.289 C 289.268 84.491,287.883 83.501,285.861 80.052 C 284.474 77.689,284.580 77.788,283.745 78.075 C 282.894 78.367,282.907 78.237,283.409 81.456 C 283.998 85.236,284.039 85.289,287.000 86.100 C 293.626 87.915,299.833 84.161,299.833 78.337 C 299.833 74.416,297.731 72.358,292.100 70.768 C 288.608 69.781,287.674 69.092,287.533 67.398 C 287.351 65.205,288.824 63.810,291.335 63.794 C 293.029 63.784,293.676 64.169,295.694 66.391 C 296.623 67.414,297.511 68.388,297.669 68.556 C 298.043 68.956,299.413 68.366,299.269 67.867 C 299.225 67.711,299.030 66.758,298.837 65.750 C 298.383 63.375,298.358 63.324,297.367 62.784 C 295.923 61.998,292.503 61.364,291.000 61.604 M151.750 62.168 C 146.889 62.281,147.470 62.149,147.533 63.125 L 147.583 63.917 148.509 64.099 C 150.787 64.549,150.727 64.322,150.834 72.917 C 150.942 81.580,151.225 82.731,153.805 85.018 C 156.719 87.600,163.450 86.535,165.772 83.125 C 166.383 82.227,166.553 82.515,166.759 84.797 C 166.944 86.851,166.698 86.823,171.938 85.385 L 176.000 84.271 176.000 83.732 C 176.000 82.694,175.927 82.644,174.569 82.767 C 173.109 82.900,172.649 82.685,172.309 81.714 C 172.078 81.056,171.985 69.764,172.167 64.500 L 172.250 62.083 171.667 62.133 C 171.346 62.161,169.171 62.236,166.833 62.300 L 162.583 62.417 162.530 63.064 C 162.462 63.894,162.527 63.946,163.889 64.163 C 165.169 64.367,165.693 64.642,165.974 65.260 C 166.247 65.859,166.244 79.288,165.971 80.199 C 165.464 81.891,163.547 83.189,161.388 83.302 C 157.029 83.531,156.120 80.058,156.844 65.939 C 157.034 62.243,156.992 61.963,156.271 62.036 C 156.076 62.056,154.042 62.115,151.750 62.168 M236.632 64.264 C 240.760 66.321,242.282 74.830,239.583 80.766 C 236.975 86.503,230.551 84.745,229.249 77.939 C 227.846 70.604,230.486 63.833,234.750 63.833 C 235.510 63.833,235.986 63.942,236.632 64.264 M134.738 65.403 C 139.133 67.554,140.613 78.497,137.070 82.638 C 134.905 85.166,129.494 84.658,127.957 81.782 C 127.380 80.702,127.272 67.788,127.834 66.999 C 129.198 65.083,132.516 64.316,134.738 65.403 M192.920 65.258 C 199.422 67.038,200.059 81.557,193.742 84.002 C 191.293 84.949,188.410 84.087,187.382 82.100 C 186.669 80.722,186.617 80.165,186.544 73.213 L 186.474 66.509 187.279 65.998 C 188.976 64.920,190.806 64.680,192.920 65.258 " stroke="none" fill="#fbfbfb" fill-rule="evenodd"></path><path id="path2" d="M114.000 46.967 C 114.000 52.033,113.949 53.818,113.800 53.967 C 113.651 54.116,111.867 54.167,106.800 54.167 L 100.000 54.167 100.000 87.071 C 100.000 116.763,100.026 120.002,100.262 120.238 C 100.497 120.473,102.415 120.500,118.883 120.500 L 137.242 120.500 127.528 110.846 L 117.815 101.192 117.866 100.304 L 117.917 99.417 119.373 99.329 C 121.789 99.184,121.638 100.302,121.655 82.354 L 121.667 69.790 120.248 68.341 C 119.468 67.544,118.868 66.841,118.915 66.779 C 118.962 66.717,118.954 66.700,118.899 66.740 C 118.619 66.943,117.977 66.030,118.029 65.502 C 118.080 64.989,118.171 64.915,119.417 64.373 C 120.150 64.054,121.825 63.317,123.139 62.735 C 124.453 62.153,125.785 61.628,126.099 61.569 C 126.701 61.456,127.251 61.729,127.056 62.045 C 126.997 62.140,127.022 62.172,127.113 62.117 C 127.203 62.061,127.640 62.383,128.083 62.833 L 128.890 63.652 129.570 63.232 C 132.912 61.166,136.725 60.974,139.818 62.714 C 140.745 63.236,143.119 65.445,143.038 65.710 C 143.012 65.791,143.055 65.819,143.132 65.772 C 143.208 65.724,144.917 67.332,146.927 69.345 L 150.583 73.005 150.699 72.378 C 150.840 71.607,150.833 68.085,150.689 67.464 C 150.628 67.204,149.894 66.314,148.958 65.365 C 147.278 63.662,147.084 63.278,147.506 62.489 C 147.669 62.185,147.891 62.167,151.399 62.167 C 153.446 62.167,155.468 62.119,155.893 62.061 L 156.667 61.955 156.667 51.233 C 156.667 40.804,156.658 40.507,156.344 40.339 C 156.127 40.223,149.176 40.167,135.011 40.167 L 114.000 40.167 114.000 46.967 M138.872 74.333 C 138.872 74.654,138.906 74.785,138.948 74.625 C 138.990 74.465,138.990 74.202,138.948 74.042 C 138.906 73.881,138.872 74.012,138.872 74.333 M150.714 78.417 C 150.716 78.875,150.748 79.043,150.786 78.789 C 150.825 78.536,150.824 78.161,150.784 77.956 C 150.744 77.751,150.713 77.958,150.714 78.417 M140.833 83.083 C 140.428 83.496,140.135 83.833,140.181 83.833 C 140.226 83.833,140.595 83.496,141.000 83.083 C 141.405 82.671,141.699 82.333,141.653 82.333 C 141.607 82.333,141.238 82.671,140.833 83.083 M153.333 84.750 C 153.644 85.071,153.936 85.333,153.982 85.333 C 154.028 85.333,153.811 85.071,153.500 84.750 C 153.189 84.429,152.897 84.167,152.851 84.167 C 152.805 84.167,153.022 84.429,153.333 84.750 M132.294 86.618 C 132.501 86.658,132.801 86.656,132.960 86.615 C 133.120 86.573,132.950 86.540,132.583 86.542 C 132.217 86.544,132.086 86.578,132.294 86.618 M127.724 93.250 C 127.724 93.983,127.754 94.263,127.789 93.871 C 127.824 93.479,127.824 92.879,127.788 92.537 C 127.752 92.196,127.723 92.517,127.724 93.250 M129.463 99.289 C 129.855 99.324,130.455 99.324,130.796 99.288 C 131.137 99.252,130.817 99.223,130.083 99.224 C 129.350 99.224,129.071 99.254,129.463 99.289 M120.292 101.454 C 120.590 101.491,121.077 101.491,121.375 101.454 C 121.673 101.417,121.429 101.387,120.833 101.387 C 120.237 101.387,119.994 101.417,120.292 101.454 M128.292 101.454 C 128.590 101.491,129.077 101.491,129.375 101.454 C 129.673 101.417,129.429 101.387,128.833 101.387 C 128.237 101.387,127.994 101.417,128.292 101.454 " stroke="none" fill="#34649c" fill-rule="evenodd"></path><path id="path3" d="M216.723 55.667 C 216.723 56.354,216.752 56.635,216.788 56.292 C 216.824 55.948,216.824 55.385,216.788 55.042 C 216.752 54.698,216.723 54.979,216.723 55.667 M186.545 55.500 C 186.545 55.913,186.578 56.081,186.618 55.875 C 186.657 55.669,186.657 55.331,186.618 55.125 C 186.578 54.919,186.545 55.087,186.545 55.500 M210.555 60.917 C 210.555 61.558,210.586 61.800,210.622 61.455 C 210.658 61.109,210.657 60.584,210.620 60.288 C 210.583 59.992,210.554 60.275,210.555 60.917 M127.206 62.695 C 127.291 63.183,127.410 63.860,127.472 64.199 L 127.583 64.815 128.228 64.221 L 128.873 63.626 127.962 62.716 L 127.052 61.806 127.206 62.695 M149.167 65.583 C 150.818 67.243,150.741 67.208,150.607 66.236 C 150.469 65.224,150.002 64.603,149.198 64.363 C 147.664 63.903,147.659 64.068,149.167 65.583 M129.894 65.584 C 129.240 65.903,128.467 66.433,128.177 66.764 L 127.650 67.364 127.700 74.319 L 127.750 81.275 128.185 81.932 C 129.817 84.396,134.318 84.967,136.565 82.994 C 140.055 79.930,139.594 69.740,135.807 66.221 C 134.323 64.842,131.946 64.586,129.894 65.584 M143.456 66.272 C 145.576 69.597,145.512 75.229,143.303 79.774 C 140.538 85.460,133.643 88.140,127.936 85.746 C 127.514 85.568,127.684 97.451,128.120 98.542 L 128.370 99.167 129.726 99.169 C 131.838 99.172,131.857 99.184,131.799 100.396 L 131.750 101.417 128.667 101.366 C 126.971 101.338,123.914 101.365,121.874 101.426 L 118.165 101.537 127.703 111.019 L 137.240 120.500 146.690 120.500 C 151.887 120.500,156.258 120.454,156.403 120.399 C 156.791 120.250,156.809 86.500,156.421 86.500 C 155.757 86.500,154.238 85.605,153.333 84.680 C 151.329 82.632,150.667 80.462,150.667 75.946 L 150.667 73.081 146.736 69.165 C 143.333 65.776,142.892 65.387,143.456 66.272 M119.991 68.053 C 121.446 69.538,121.613 69.639,121.435 68.932 C 121.283 68.326,120.719 67.788,119.583 67.165 L 118.583 66.616 119.991 68.053 M180.556 76.833 C 180.556 77.521,180.585 77.802,180.621 77.458 C 180.657 77.115,180.657 76.552,180.621 76.208 C 180.585 75.865,180.556 76.146,180.556 76.833 M276.389 78.500 C 276.389 79.188,276.419 79.469,276.455 79.125 C 276.491 78.781,276.491 78.219,276.455 77.875 C 276.419 77.531,276.389 77.813,276.389 78.500 M216.705 80.667 C 216.705 80.987,216.740 81.119,216.782 80.958 C 216.823 80.798,216.823 80.535,216.782 80.375 C 216.740 80.215,216.705 80.346,216.705 80.667 M173.542 82.782 C 173.702 82.823,173.965 82.823,174.125 82.782 C 174.285 82.740,174.154 82.705,173.833 82.705 C 173.512 82.705,173.381 82.740,173.542 82.782 M234.875 84.115 C 235.035 84.157,235.298 84.157,235.458 84.115 C 235.619 84.073,235.487 84.039,235.167 84.039 C 234.846 84.039,234.715 84.073,234.875 84.115 M206.214 84.917 C 206.216 85.375,206.248 85.543,206.286 85.289 C 206.325 85.036,206.324 84.661,206.284 84.456 C 206.244 84.251,206.213 84.458,206.214 84.917 " stroke="none" fill="#2c5c8c" fill-rule="evenodd"></path><path id="path4" d="M106.916 47.208 L 99.917 54.250 106.958 47.251 C 110.831 43.401,114.000 40.232,114.000 40.209 C 114.000 40.092,113.421 40.663,106.916 47.208 M186.729 47.917 C 186.729 48.925,186.757 49.316,186.790 48.786 C 186.823 48.255,186.823 47.430,186.789 46.952 C 186.756 46.474,186.729 46.908,186.729 47.917 M206.042 49.417 C 206.044 49.783,206.078 49.914,206.118 49.706 C 206.158 49.499,206.156 49.199,206.115 49.040 C 206.073 48.880,206.040 49.050,206.042 49.417 M216.735 51.750 C 216.735 53.308,216.760 53.968,216.791 53.217 C 216.821 52.465,216.821 51.190,216.791 50.383 C 216.760 49.577,216.735 50.192,216.735 51.750 M186.542 54.250 C 186.544 54.617,186.578 54.747,186.618 54.540 C 186.658 54.332,186.656 54.032,186.615 53.873 C 186.573 53.714,186.540 53.883,186.542 54.250 M210.565 57.750 C 210.565 58.942,210.592 59.407,210.624 58.785 C 210.656 58.162,210.656 57.187,210.623 56.618 C 210.591 56.049,210.564 56.558,210.565 57.750 M180.576 68.583 C 180.576 72.525,180.598 74.114,180.625 72.114 C 180.651 70.114,180.651 66.889,180.625 64.947 C 180.598 63.005,180.576 64.642,180.576 68.583 M193.208 61.615 C 193.369 61.657,193.631 61.657,193.792 61.615 C 193.952 61.573,193.821 61.539,193.500 61.539 C 193.179 61.539,193.048 61.573,193.208 61.615 M234.208 61.615 C 234.369 61.657,234.631 61.657,234.792 61.615 C 234.952 61.573,234.821 61.539,234.500 61.539 C 234.179 61.539,234.048 61.573,234.208 61.615 M235.875 61.615 C 236.035 61.657,236.298 61.657,236.458 61.615 C 236.619 61.573,236.487 61.539,236.167 61.539 C 235.846 61.539,235.715 61.573,235.875 61.615 M162.609 62.292 C 162.566 62.360,163.705 62.397,165.141 62.374 C 170.080 62.292,170.574 62.235,166.635 62.201 C 164.463 62.182,162.651 62.223,162.609 62.292 M147.333 63.240 C 147.333 63.556,147.391 63.849,147.461 63.893 C 147.532 63.936,147.561 63.678,147.527 63.319 C 147.450 62.513,147.333 62.466,147.333 63.240 M141.667 64.250 C 141.978 64.571,142.270 64.833,142.315 64.833 C 142.361 64.833,142.144 64.571,141.833 64.250 C 141.522 63.929,141.230 63.667,141.185 63.667 C 141.139 63.667,141.356 63.929,141.667 64.250 M172.209 64.417 C 172.211 64.783,172.245 64.914,172.285 64.706 C 172.324 64.499,172.323 64.199,172.281 64.040 C 172.239 63.880,172.207 64.050,172.209 64.417 M243.917 65.000 C 244.368 65.458,244.775 65.833,244.821 65.833 C 244.867 65.833,244.535 65.458,244.083 65.000 C 243.632 64.542,243.225 64.167,243.179 64.167 C 243.133 64.167,243.465 64.542,243.917 65.000 M156.872 64.833 C 156.872 65.154,156.906 65.285,156.948 65.125 C 156.990 64.965,156.990 64.702,156.948 64.542 C 156.906 64.381,156.872 64.512,156.872 64.833 M166.076 72.667 C 166.076 76.654,166.098 78.285,166.125 76.292 C 166.151 74.298,166.151 71.035,166.125 69.042 C 166.098 67.048,166.076 68.679,166.076 72.667 M136.000 66.417 C 136.311 66.737,136.603 67.000,136.649 67.000 C 136.695 67.000,136.478 66.737,136.167 66.417 C 135.856 66.096,135.564 65.833,135.518 65.833 C 135.472 65.833,135.689 66.096,136.000 66.417 M150.714 67.083 C 150.716 67.542,150.748 67.709,150.786 67.456 C 150.825 67.203,150.824 66.828,150.784 66.623 C 150.744 66.418,150.713 66.625,150.714 67.083 M172.076 73.250 C 172.076 76.733,172.098 78.182,172.125 76.469 C 172.152 74.757,172.152 71.907,172.125 70.136 C 172.098 68.365,172.076 69.767,172.076 73.250 M127.576 73.833 C 127.576 77.454,127.598 78.935,127.625 77.125 C 127.652 75.315,127.652 72.352,127.625 70.542 C 127.598 68.731,127.576 70.212,127.576 73.833 M156.741 72.917 C 156.740 75.667,156.763 76.815,156.791 75.469 C 156.819 74.122,156.819 71.872,156.791 70.469 C 156.763 69.065,156.741 70.167,156.741 72.917 M276.406 73.000 C 276.406 75.429,276.429 76.423,276.458 75.208 C 276.486 73.994,276.486 72.006,276.458 70.792 C 276.429 69.577,276.406 70.571,276.406 73.000 M270.408 74.750 C 270.408 77.958,270.431 79.247,270.458 77.614 C 270.485 75.981,270.485 73.356,270.458 71.781 C 270.431 70.206,270.408 71.542,270.408 74.750 M260.743 76.000 C 260.743 79.712,260.765 81.231,260.791 79.375 C 260.818 77.519,260.818 74.481,260.791 72.625 C 260.765 70.769,260.743 72.287,260.743 76.000 M144.894 72.417 C 144.895 73.333,144.923 73.687,144.956 73.203 C 144.990 72.718,144.990 71.968,144.956 71.536 C 144.921 71.104,144.894 71.500,144.894 72.417 M229.039 71.500 C 229.039 71.821,229.073 71.952,229.115 71.792 C 229.157 71.631,229.157 71.369,229.115 71.208 C 229.073 71.048,229.039 71.179,229.039 71.500 M150.709 72.583 C 150.711 72.950,150.745 73.080,150.785 72.873 C 150.824 72.666,150.823 72.366,150.781 72.206 C 150.739 72.047,150.707 72.217,150.709 72.583 M240.888 73.750 C 240.889 74.392,240.919 74.634,240.955 74.288 C 240.991 73.942,240.990 73.417,240.954 73.121 C 240.917 72.825,240.887 73.108,240.888 73.750 M284.833 73.750 C 285.144 74.071,285.436 74.333,285.482 74.333 C 285.528 74.333,285.311 74.071,285.000 73.750 C 284.689 73.429,284.397 73.167,284.351 73.167 C 284.305 73.167,284.522 73.429,284.833 73.750 M150.731 75.667 C 150.731 76.813,150.758 77.281,150.790 76.708 C 150.823 76.135,150.823 75.198,150.790 74.625 C 150.758 74.052,150.731 74.521,150.731 75.667 M229.039 76.500 C 229.039 76.821,229.073 76.952,229.115 76.792 C 229.157 76.631,229.157 76.369,229.115 76.208 C 229.073 76.048,229.039 76.179,229.039 76.500 M299.883 78.333 C 299.883 78.837,299.915 79.044,299.953 78.792 C 299.991 78.540,299.991 78.127,299.953 77.875 C 299.915 77.623,299.883 77.829,299.883 78.333 M180.569 81.083 C 180.570 82.825,180.594 83.515,180.624 82.616 C 180.654 81.718,180.654 80.293,180.624 79.450 C 180.594 78.607,180.569 79.342,180.569 81.083 M216.712 81.833 C 216.712 82.246,216.745 82.415,216.784 82.208 C 216.824 82.002,216.824 81.665,216.784 81.458 C 216.745 81.252,216.712 81.421,216.712 81.833 M199.909 82.875 L 199.250 83.583 199.958 82.925 C 200.348 82.562,200.667 82.243,200.667 82.216 C 200.667 82.090,200.522 82.216,199.909 82.875 M136.740 82.875 L 136.250 83.417 136.792 82.927 C 137.090 82.658,137.333 82.414,137.333 82.385 C 137.333 82.257,137.196 82.370,136.740 82.875 M207.380 83.956 C 207.818 83.990,208.493 83.990,208.880 83.955 C 209.267 83.920,208.908 83.892,208.083 83.892 C 207.258 83.893,206.942 83.922,207.380 83.956 M218.542 83.956 C 218.977 83.990,219.690 83.990,220.125 83.956 C 220.560 83.922,220.204 83.893,219.333 83.893 C 218.463 83.893,218.106 83.922,218.542 83.956 M252.292 83.954 C 252.590 83.991,253.077 83.991,253.375 83.954 C 253.673 83.917,253.429 83.887,252.833 83.887 C 252.237 83.887,251.994 83.917,252.292 83.954 M261.875 83.953 C 262.127 83.991,262.540 83.991,262.792 83.953 C 263.044 83.915,262.837 83.883,262.333 83.883 C 261.829 83.883,261.623 83.915,261.875 83.953 M268.128 83.954 C 268.428 83.991,268.878 83.990,269.128 83.952 C 269.378 83.914,269.133 83.884,268.583 83.885 C 268.033 83.886,267.828 83.917,268.128 83.954 M277.875 83.955 C 278.219 83.991,278.781 83.991,279.125 83.955 C 279.469 83.919,279.188 83.889,278.500 83.889 C 277.813 83.889,277.531 83.919,277.875 83.955 M267.385 84.917 C 267.386 85.467,267.417 85.672,267.454 85.372 C 267.491 85.072,267.490 84.622,267.452 84.372 C 267.414 84.122,267.384 84.367,267.385 84.917 M132.795 84.287 C 133.094 84.325,133.544 84.324,133.795 84.286 C 134.045 84.248,133.800 84.217,133.250 84.218 C 132.700 84.219,132.495 84.250,132.795 84.287 M251.548 84.917 C 251.549 85.375,251.581 85.543,251.620 85.289 C 251.658 85.036,251.657 84.661,251.617 84.456 C 251.578 84.251,251.546 84.458,251.548 84.917 M263.331 85.034 C 263.286 85.557,263.311 85.923,263.385 85.849 C 263.459 85.774,263.496 85.346,263.466 84.898 L 263.411 84.083 263.331 85.034 M290.792 84.287 C 291.090 84.324,291.577 84.324,291.875 84.287 C 292.173 84.250,291.929 84.220,291.333 84.220 C 290.737 84.220,290.494 84.250,290.792 84.287 M191.294 84.451 C 191.501 84.491,191.801 84.490,191.960 84.448 C 192.120 84.406,191.950 84.374,191.583 84.375 C 191.217 84.377,191.086 84.411,191.294 84.451 M221.045 85.000 C 221.045 85.412,221.078 85.581,221.118 85.375 C 221.157 85.169,221.157 84.831,221.118 84.625 C 221.078 84.419,221.045 84.587,221.045 85.000 M127.568 85.731 C 127.519 85.858,127.504 86.289,127.535 86.689 C 127.589 87.393,127.593 87.386,127.670 86.458 C 127.751 85.485,127.727 85.315,127.568 85.731 M209.295 85.954 C 209.594 85.991,210.044 85.990,210.295 85.952 C 210.545 85.914,210.300 85.884,209.750 85.885 C 209.200 85.886,208.995 85.917,209.295 85.954 M217.208 85.953 C 217.460 85.991,217.873 85.991,218.125 85.953 C 218.377 85.915,218.171 85.883,217.667 85.883 C 217.162 85.883,216.956 85.915,217.208 85.953 M253.958 85.951 C 254.165 85.991,254.502 85.991,254.708 85.951 C 254.915 85.911,254.746 85.879,254.333 85.879 C 253.921 85.879,253.752 85.911,253.958 85.951 M260.460 85.951 C 260.668 85.991,260.968 85.990,261.127 85.948 C 261.286 85.906,261.117 85.874,260.750 85.875 C 260.383 85.877,260.253 85.911,260.460 85.951 M269.792 85.951 C 269.998 85.991,270.335 85.991,270.542 85.951 C 270.748 85.911,270.579 85.879,270.167 85.879 C 269.754 85.879,269.585 85.911,269.792 85.951 M276.625 85.951 C 276.831 85.991,277.169 85.991,277.375 85.951 C 277.581 85.911,277.412 85.879,277.000 85.879 C 276.587 85.879,276.419 85.911,276.625 85.951 M127.727 96.000 C 127.727 96.871,127.755 97.227,127.789 96.792 C 127.824 96.356,127.824 95.644,127.789 95.208 C 127.755 94.773,127.727 95.129,127.727 96.000 M121.556 96.667 C 121.556 97.354,121.585 97.635,121.621 97.292 C 121.657 96.948,121.657 96.385,121.621 96.042 C 121.585 95.698,121.556 95.979,121.556 96.667 M117.853 100.365 C 117.842 100.887,117.890 101.348,117.958 101.391 C 118.027 101.433,118.061 101.119,118.034 100.692 C 117.955 99.475,117.874 99.328,117.853 100.365 M119.042 101.448 C 119.202 101.490,119.465 101.490,119.625 101.448 C 119.785 101.406,119.654 101.372,119.333 101.372 C 119.013 101.372,118.881 101.406,119.042 101.448 M130.042 101.448 C 130.202 101.490,130.465 101.490,130.625 101.448 C 130.785 101.406,130.654 101.372,130.333 101.372 C 130.012 101.372,129.881 101.406,130.042 101.448 " stroke="none" fill="#9c9c9c" fill-rule="evenodd"></path></g></svg>